<svg width="25" height="25" viewBox="0 0 25 25" fill="none" xmlns="http://www.w3.org/2000/svg">
<path d="M22.351 11.4969C22.0074 11.0408 20.731 10.7267 20.191 9.90594C19.651 9.08516 19.209 7.30766 17.8346 6.62469C16.4603 5.94172 13.8334 5.75 12.3334 5.75C10.8334 5.75 8.20838 5.9375 6.83213 6.62328C5.45588 7.30906 5.01572 9.08516 4.47572 9.90453C3.93572 10.7239 2.65932 11.0408 2.31572 11.4969C1.97213 11.953 1.73025 14.8363 1.87744 16.25C2.02463 17.6637 2.29932 18.5 2.29932 18.5H6.33057C6.99057 18.5 7.20525 18.252 8.55525 18.125C10.0365 17.9844 11.4896 17.9375 12.3334 17.9375C13.1771 17.9375 14.6771 17.9844 16.1574 18.125C17.5074 18.253 17.7292 18.5 18.3821 18.5H22.3665C22.3665 18.5 22.6412 17.6637 22.7884 16.25C22.9356 14.8363 22.6928 11.953 22.351 11.4969ZM19.0834 18.5H21.7084V19.25H19.0834V18.5ZM2.95838 18.5H5.58338V19.25H2.95838V18.5Z" stroke="white" stroke-width="1.5" stroke-linecap="round" stroke-linejoin="round"/>
<path d="M17.4179 14.9918C17.1409 14.6717 16.2381 14.4045 15.0427 14.2254C13.8474 14.0464 13.4115 14 12.3427 14C11.274 14 10.7879 14.0768 9.64228 14.2254C8.49665 14.374 7.6365 14.6384 7.26759 14.9918C6.714 15.5281 7.52493 16.13 8.1615 16.2031C8.77837 16.2734 10.0117 16.2476 12.3479 16.2476C14.6842 16.2476 15.9174 16.2734 16.5343 16.2031C17.1699 16.1257 17.9227 15.5656 17.4179 14.9918ZM20.5632 11.8929C20.5606 11.8557 20.5443 11.8208 20.5175 11.7948C20.4907 11.7689 20.4552 11.7537 20.4179 11.7523C19.8643 11.7326 19.3023 11.772 18.3052 12.0659C17.7966 12.2144 17.3189 12.4536 16.8952 12.7718C16.7884 12.8553 16.8263 13.0807 16.9604 13.1047C17.7822 13.201 18.6089 13.2496 19.4363 13.25C19.9327 13.25 20.4451 13.1093 20.5402 12.6668C20.5888 12.4117 20.5965 12.1505 20.5632 11.8929ZM4.10353 11.8929C4.10616 11.8557 4.12245 11.8208 4.14927 11.7948C4.17609 11.7689 4.21155 11.7537 4.24884 11.7523C4.80243 11.7326 5.36447 11.772 6.3615 12.0659C6.87017 12.2144 7.34783 12.4536 7.7715 12.7718C7.87837 12.8553 7.8404 13.0807 7.70634 13.1047C6.88454 13.201 6.05783 13.2496 5.2304 13.25C4.734 13.25 4.22165 13.1093 4.1265 12.6668C4.07798 12.4117 4.07023 12.1505 4.10353 11.8929Z" fill="white"/>
<path d="M20.5834 9.5H21.3334M3.33337 9.5H4.08337M3.98962 10.3906C3.98962 10.3906 6.16228 9.82812 12.3334 9.82812C18.5045 9.82812 20.6771 10.3906 20.6771 10.3906" stroke="white" stroke-width="1.5" stroke-linecap="round" stroke-linejoin="round"/>
</svg>
