<svg width="22" height="19" viewBox="0 0 22 19" fill="none" xmlns="http://www.w3.org/2000/svg">
<path d="M10.7873 9.07906C10.8561 9.18054 10.8991 9.29736 10.9123 9.41929C10.9255 9.54122 10.9087 9.66454 10.8632 9.77844L9.36319 13.5284C9.28897 13.7132 9.1444 13.8609 8.96129 13.939C8.77818 14.0172 8.57152 14.0194 8.38678 13.9452C8.20204 13.8709 8.05435 13.7264 7.9762 13.5433C7.89805 13.3601 7.89584 13.1535 7.97006 12.9688L9.0585 10.25H7.16663C7.04371 10.2502 6.92262 10.2202 6.81402 10.1626C6.70541 10.1051 6.61263 10.0217 6.54383 9.9198C6.47502 9.81794 6.43231 9.70073 6.41945 9.57848C6.40659 9.45623 6.42397 9.3327 6.47006 9.21875L7.97006 5.46875C8.04466 5.28401 8.18958 5.13647 8.37296 5.05858C8.55633 4.9807 8.76314 4.97885 8.94788 5.05344C9.13262 5.12803 9.28016 5.27295 9.35804 5.45633C9.43593 5.63971 9.43778 5.84651 9.36319 6.03125L8.27475 8.75H10.1666C10.2891 8.75002 10.4097 8.78002 10.5178 8.83738C10.626 8.89474 10.7185 8.97772 10.7873 9.07906ZM21.4166 5.62156V13.25C21.4166 13.8467 21.1796 14.419 20.7576 14.841C20.3357 15.2629 19.7634 15.5 19.1666 15.5C18.5699 15.5 17.9976 15.2629 17.5756 14.841C17.1537 14.419 16.9166 13.8467 16.9166 13.25V9.5C16.9166 9.30109 16.8376 9.11032 16.697 8.96967C16.5563 8.82902 16.3655 8.75 16.1666 8.75H14.6666V17H16.1666C16.3655 17 16.5563 17.079 16.697 17.2197C16.8376 17.3603 16.9166 17.5511 16.9166 17.75C16.9166 17.9489 16.8376 18.1397 16.697 18.2803C16.5563 18.421 16.3655 18.5 16.1666 18.5H1.16663C0.967714 18.5 0.776948 18.421 0.636296 18.2803C0.495644 18.1397 0.416626 17.9489 0.416626 17.75C0.416626 17.5511 0.495644 17.3603 0.636296 17.2197C0.776948 17.079 0.967714 17 1.16663 17H2.66663V2.75C2.66663 2.15326 2.90368 1.58097 3.32564 1.15901C3.74759 0.737053 4.31989 0.5 4.91663 0.5H12.4166C13.0134 0.5 13.5857 0.737053 14.0076 1.15901C14.4296 1.58097 14.6666 2.15326 14.6666 2.75V7.25H16.1666C16.7634 7.25 17.3357 7.48705 17.7576 7.90901C18.1796 8.33097 18.4166 8.90326 18.4166 9.5V13.25C18.4166 13.4489 18.4956 13.6397 18.6363 13.7803C18.7769 13.921 18.9677 14 19.1666 14C19.3655 14 19.5563 13.921 19.697 13.7803C19.8376 13.6397 19.9166 13.4489 19.9166 13.25V5.62156C19.916 5.42356 19.8372 5.23383 19.6973 5.09375L17.886 3.28062C17.7453 3.13989 17.6662 2.94902 17.6662 2.75C17.6662 2.55098 17.7453 2.36011 17.886 2.21938C18.0267 2.07864 18.2176 1.99958 18.4166 1.99958C18.6157 1.99958 18.8065 2.07864 18.9473 2.21938L20.7604 4.03063C20.9694 4.23931 21.1351 4.48736 21.2477 4.76043C21.3603 5.0335 21.4178 5.32618 21.4166 5.62156ZM13.1666 17V2.75C13.1666 2.55109 13.0876 2.36032 12.947 2.21967C12.8063 2.07902 12.6155 2 12.4166 2H4.91663C4.71771 2 4.52695 2.07902 4.3863 2.21967C4.24564 2.36032 4.16663 2.55109 4.16663 2.75V17H13.1666Z" fill="white"/>
</svg>
