<svg width="22" height="22" viewBox="0 0 22 22" fill="none" xmlns="http://www.w3.org/2000/svg">
<path d="M11 21.5625C16.8332 21.5625 21.5625 16.8332 21.5625 11C21.5625 5.16676 16.8332 0.4375 11 0.4375C5.16676 0.4375 0.4375 5.16676 0.4375 11C0.4375 16.8332 5.16676 21.5625 11 21.5625ZM6.36062 10.7639C6.43577 10.6881 6.52511 10.6279 6.62354 10.5866C6.72197 10.5454 6.82755 10.524 6.93427 10.5235C7.04098 10.5231 7.14674 10.5437 7.24549 10.5842C7.34424 10.6246 7.43406 10.6841 7.5098 10.7593L10.1875 13.4162V6.63281C10.1875 6.41732 10.2731 6.21066 10.4255 6.05829C10.5778 5.90592 10.7845 5.82031 11 5.82031C11.2155 5.82031 11.4222 5.90592 11.5745 6.05829C11.7269 6.21066 11.8125 6.41732 11.8125 6.63281V13.4162L14.4902 10.7593C14.6433 10.6075 14.8505 10.5228 15.0661 10.5237C15.2817 10.5247 15.4881 10.6112 15.6399 10.7644C15.7917 10.9175 15.8764 11.1247 15.8755 11.3403C15.8745 11.5559 15.7879 11.7623 15.6348 11.9141L11.5723 15.9456C11.4201 16.0966 11.2144 16.1814 11 16.1814C10.7856 16.1814 10.5799 16.0966 10.4277 15.9456L6.3652 11.9141C6.28927 11.8389 6.22892 11.7495 6.1876 11.651C6.14627 11.5525 6.12478 11.4467 6.12436 11.3399C6.12393 11.2331 6.14458 11.1272 6.18512 11.0284C6.22567 10.9295 6.2853 10.8396 6.36062 10.7639Z" fill="#369C96"/>
</svg>
