<svg width="12" height="7" viewBox="0 0 12 7" fill="none" xmlns="http://www.w3.org/2000/svg">
<path d="M10.9981 0.826018L6.00008 5.69802L1.00208 0.826018C0.912778 0.738795 0.792903 0.689965 0.668076 0.689965C0.543249 0.689965 0.423374 0.738795 0.334076 0.826018C0.290838 0.868382 0.256488 0.918948 0.233038 0.974754C0.209588 1.03056 0.19751 1.09048 0.19751 1.15102C0.19751 1.21155 0.209588 1.27147 0.233038 1.32728C0.256488 1.38309 0.290838 1.43365 0.334076 1.47602L5.65108 6.66002C5.74445 6.75103 5.86968 6.80197 6.00008 6.80197C6.13047 6.80197 6.2557 6.75103 6.34908 6.66002L11.6661 1.47702C11.7096 1.43462 11.7442 1.38393 11.7679 1.32794C11.7915 1.27195 11.8037 1.21179 11.8037 1.15102C11.8037 1.09024 11.7915 1.03009 11.7679 0.974094C11.7442 0.918103 11.7096 0.867414 11.6661 0.825017C11.5768 0.737795 11.4569 0.688965 11.3321 0.688965C11.2072 0.688965 11.0874 0.737795 10.9981 0.825017V0.826018Z" fill="#8FA2A2"/>
</svg>
