<svg width="16" height="9" viewBox="0 0 16 9" fill="none" xmlns="http://www.w3.org/2000/svg">
<path d="M0.840493 0.454385C1.05146 0.24348 1.33756 0.125 1.63587 0.125C1.93418 0.125 2.22027 0.24348 2.43124 0.454385L7.99999 6.02313L13.5687 0.454385C13.7809 0.249457 14.0651 0.136063 14.3601 0.138626C14.655 0.141189 14.9372 0.259505 15.1458 0.468089C15.3544 0.676673 15.4727 0.958837 15.4753 1.25381C15.4778 1.54878 15.3644 1.83296 15.1595 2.04513L8.79537 8.40926C8.5844 8.62016 8.2983 8.73864 7.99999 8.73864C7.70168 8.73864 7.41559 8.62016 7.20462 8.40926L0.840493 2.04513C0.629588 1.83417 0.511108 1.54807 0.511108 1.24976C0.511108 0.95145 0.629588 0.665354 0.840493 0.454385Z" fill="white"/>
</svg>
