<svg width="16" height="17" viewBox="0 0 16 17" fill="none" xmlns="http://www.w3.org/2000/svg">
<path d="M8 10.3999C8.82843 10.3999 9.5 9.72833 9.5 8.8999C9.5 8.07148 8.82843 7.3999 8 7.3999C7.17157 7.3999 6.5 8.07148 6.5 8.8999C6.5 9.72833 7.17157 10.3999 8 10.3999Z" fill="#304399"/>
<path d="M8 15.3999C8.82843 15.3999 9.5 14.7283 9.5 13.8999C9.5 13.0715 8.82843 12.3999 8 12.3999C7.17157 12.3999 6.5 13.0715 6.5 13.8999C6.5 14.7283 7.17157 15.3999 8 15.3999Z" fill="#304399"/>
<path d="M8 5.3999C8.82843 5.3999 9.5 4.72833 9.5 3.8999C9.5 3.07148 8.82843 2.3999 8 2.3999C7.17157 2.3999 6.5 3.07148 6.5 3.8999C6.5 4.72833 7.17157 5.3999 8 5.3999Z" fill="#304399"/>
</svg>
