<svg width="18" height="15" viewBox="0 0 18 15" fill="none" xmlns="http://www.w3.org/2000/svg">
<path d="M10.875 10.625V12.1875C10.875 12.6019 10.7104 12.9993 10.4174 13.2924C10.1243 13.5854 9.7269 13.75 9.3125 13.75H3.0625C2.6481 13.75 2.25067 13.5854 1.95765 13.2924C1.66462 12.9993 1.5 12.6019 1.5 12.1875V2.8125C1.5 2.3981 1.66462 2.00067 1.95765 1.70765C2.25067 1.41462 2.6481 1.25 3.0625 1.25H9C9.86289 1.25 10.875 1.94961 10.875 2.8125V4.375M13.375 10.625L16.5 7.5L13.375 4.375M5.875 7.5H15.875" stroke="white" stroke-width="1.25" stroke-linecap="round" stroke-linejoin="round"/>
</svg>
