<svg width="32" height="30" viewBox="0 0 32 30" fill="none" xmlns="http://www.w3.org/2000/svg">
<mask id="mask0_2_3873" style="mask-type:luminance" maskUnits="userSpaceOnUse" x="0" y="0" width="32" height="30">
<path d="M1.75 3C1.75 2.60218 1.90804 2.22064 2.18934 1.93934C2.47064 1.65804 2.85218 1.5 3.25 1.5H12.25L16 6H28.75C29.1478 6 29.5294 6.15804 29.8107 6.43934C30.092 6.72064 30.25 7.10218 30.25 7.5V27C30.25 27.3978 30.092 27.7794 29.8107 28.0607C29.5294 28.342 29.1478 28.5 28.75 28.5H3.25C2.85218 28.5 2.47064 28.342 2.18934 28.0607C1.90804 27.7794 1.75 27.3978 1.75 27V3Z" fill="white" stroke="white" stroke-width="3" stroke-linejoin="round"/>
<path d="M10.75 15H21.25L17.5 11.25M21.25 19.5H10.75L14.5 23.25" stroke="black" stroke-width="3" stroke-linecap="round" stroke-linejoin="round"/>
</mask>
<g mask="url(#mask0_2_3873)">
<path d="M-2 -3H34V33H-2V-3Z" fill="url(#paint0_linear_2_3873)"/>
</g>
<defs>
<linearGradient id="paint0_linear_2_3873" x1="-2.28771" y1="-3.28571" x2="40.2604" y2="23.9436" gradientUnits="userSpaceOnUse">
<stop stop-color="#8BDFDA"/>
<stop offset="1" stop-color="#369C96"/>
</linearGradient>
</defs>
</svg>
