<svg width="36" height="36" viewBox="0 0 36 36" fill="none" xmlns="http://www.w3.org/2000/svg">
<g filter="url(#filter0_d_2_3802)">
<path d="M22.0493 4.79394C21.9677 4.77739 21.8835 4.77916 21.8027 4.79911C21.7219 4.81905 21.6465 4.85668 21.582 4.90928C21.5175 4.96188 21.4655 5.02813 21.4297 5.10327C21.3939 5.17841 21.3752 5.26055 21.375 5.34378V18C21.3744 18.6514 21.1856 19.2887 20.8314 19.8354C20.4771 20.382 19.9724 20.8146 19.3781 21.0811L7.2513 26.5078C7.17613 26.5414 7.10924 26.591 7.05536 26.6533C7.00147 26.7155 6.9619 26.7888 6.93944 26.868C6.91698 26.9472 6.91217 27.0303 6.92535 27.1116C6.93854 27.1928 6.9694 27.2702 7.01575 27.3382C7.94382 28.7032 9.09581 29.9015 10.4231 30.8827C12.9378 32.7534 15.9908 33.7594 19.125 33.75C27.1891 33.75 33.75 27.1892 33.75 19.125C33.75 12.0621 28.717 6.15237 22.0493 4.79394Z" fill="url(#paint0_linear_2_3802)"/>
</g>
<defs>
<filter id="filter0_d_2_3802" x="-9.08191" y="-7.21729" width="58.8319" height="60.9673" filterUnits="userSpaceOnUse" color-interpolation-filters="sRGB">
<feFlood flood-opacity="0" result="BackgroundImageFix"/>
<feColorMatrix in="SourceAlpha" type="matrix" values="0 0 0 0 0 0 0 0 0 0 0 0 0 0 0 0 0 0 127 0" result="hardAlpha"/>
<feOffset dy="4"/>
<feGaussianBlur stdDeviation="8"/>
<feComposite in2="hardAlpha" operator="out"/>
<feColorMatrix type="matrix" values="0 0 0 0 0.689906 0 0 0 0 0.7425 0 0 0 0 0.739406 0 0 0 0.16 0"/>
<feBlend mode="normal" in2="BackgroundImageFix" result="effect1_dropShadow_2_3802"/>
<feBlend mode="normal" in="SourceGraphic" in2="effect1_dropShadow_2_3802" result="shape"/>
</filter>
<linearGradient id="paint0_linear_2_3802" x1="6.70365" y1="4.55281" x2="39.7808" y2="24.1605" gradientUnits="userSpaceOnUse">
<stop stop-color="#8BDFDA"/>
<stop offset="1" stop-color="#369C96"/>
</linearGradient>
</defs>
</svg>
