<svg width="10" height="16" viewBox="0 0 10 16" fill="none" xmlns="http://www.w3.org/2000/svg">
<path d="M9.04537 0.840615C9.25628 1.05158 9.37476 1.33768 9.37476 1.63599C9.37476 1.9343 9.25628 2.2204 9.04537 2.43137L3.47662 8.00012L9.04537 13.5689C9.2503 13.781 9.36369 14.0652 9.36113 14.3602C9.35857 14.6552 9.24025 14.9373 9.03167 15.1459C8.82308 15.3545 8.54092 15.4728 8.24595 15.4754C7.95098 15.4779 7.6668 15.3645 7.45462 15.1596L1.0905 8.79549C0.879591 8.58452 0.761111 8.29842 0.761111 8.00012C0.761111 7.70181 0.879591 7.41571 1.0905 7.20474L7.45462 0.840615C7.66559 0.62971 7.95169 0.51123 8.25 0.51123C8.54831 0.51123 8.8344 0.62971 9.04537 0.840615Z" fill="#369C96"/>
</svg>
