<svg width="7" height="13" viewBox="0 0 7 13" fill="none" xmlns="http://www.w3.org/2000/svg">
<path d="M6.67398 11.4978L1.80198 6.49983L6.67398 1.50183C6.7612 1.41253 6.81004 1.29266 6.81004 1.16783C6.81004 1.043 6.7612 0.92313 6.67398 0.833832C6.63162 0.790594 6.58105 0.756244 6.52525 0.732794C6.46944 0.709344 6.40952 0.697266 6.34898 0.697266C6.28845 0.697266 6.22853 0.709344 6.17272 0.732794C6.11691 0.756244 6.06635 0.790594 6.02398 0.833832L0.839983 6.15083C0.748969 6.24421 0.698031 6.36944 0.698031 6.49983C0.698031 6.63022 0.748969 6.75546 0.839983 6.84883L6.02298 12.1658C6.06538 12.2094 6.11607 12.244 6.17206 12.2676C6.22805 12.2912 6.28821 12.3034 6.34898 12.3034C6.40976 12.3034 6.46991 12.2912 6.52591 12.2676C6.5819 12.244 6.63259 12.2094 6.67498 12.1658C6.7622 12.0765 6.81104 11.9567 6.81104 11.8318C6.81104 11.707 6.7622 11.5871 6.67498 11.4978H6.67398Z" fill="#8FA2A2"/>
</svg>
