<svg width="12" height="12" viewBox="0 0 12 12" fill="none" xmlns="http://www.w3.org/2000/svg">
<path d="M11.4876 10.5224L8.91484 7.94961C9.53425 7.12502 9.86863 6.12132 9.8675 5.09C9.8675 2.4557 7.7243 0.3125 5.09 0.3125C2.4557 0.3125 0.3125 2.4557 0.3125 5.09C0.3125 7.7243 2.4557 9.8675 5.09 9.8675C6.12132 9.86863 7.12502 9.53425 7.94961 8.91484L10.5224 11.4876C10.6526 11.604 10.8225 11.6662 10.9971 11.6613C11.1717 11.6564 11.3378 11.5849 11.4613 11.4613C11.5849 11.3378 11.6564 11.1717 11.6613 10.9971C11.6662 10.8225 11.604 10.6526 11.4876 10.5224ZM1.6775 5.09C1.6775 4.41507 1.87764 3.7553 2.25261 3.19412C2.62758 2.63293 3.16054 2.19555 3.78409 1.93726C4.40765 1.67898 5.09379 1.6114 5.75575 1.74307C6.41771 1.87474 7.02575 2.19975 7.503 2.677C7.98025 3.15424 8.30526 3.76229 8.43693 4.42425C8.5686 5.08621 8.50102 5.77235 8.24274 6.39591C7.98446 7.01946 7.54707 7.55242 6.98588 7.92739C6.4247 8.30236 5.76493 8.5025 5.09 8.5025C4.18528 8.50141 3.31793 8.14154 2.6782 7.5018C2.03846 6.86207 1.67859 5.99472 1.6775 5.09Z" fill="#AFB2B6"/>
</svg>
