<svg width="14" height="14" viewBox="0 0 14 14" fill="none" xmlns="http://www.w3.org/2000/svg">
<path d="M10.2069 2.93979L1.70281 11.4648L1.1875 12.7123L2.435 12.197L10.96 3.69291L10.2069 2.93979ZM11.9084 1.23854L11.54 1.60666L12.2931 2.35979L12.6616 1.99135C12.7582 1.8946 12.8125 1.76343 12.8125 1.62666C12.8125 1.48989 12.7582 1.35872 12.6616 1.26198L12.6381 1.23854C12.5902 1.19062 12.5333 1.15261 12.4707 1.12668C12.4081 1.10075 12.341 1.0874 12.2733 1.0874C12.2055 1.0874 12.1384 1.10075 12.0758 1.12668C12.0132 1.15261 11.9563 1.19062 11.9084 1.23854Z" stroke="#304399" stroke-width="1.375" stroke-linecap="round" stroke-linejoin="round"/>
</svg>
