<svg width="30" height="32" viewBox="0 0 30 32" fill="none" xmlns="http://www.w3.org/2000/svg">
<path d="M20.3888 2.54078C19.0205 1.06352 17.1094 0.25 15 0.25C12.8794 0.25 10.962 1.05859 9.60004 2.52672C8.22332 4.01102 7.55254 6.02828 7.71004 8.20656C8.02222 12.5041 11.2925 16 15 16C18.7076 16 21.9722 12.5048 22.2893 8.20797C22.4489 6.04937 21.7739 4.03633 20.3888 2.54078ZM27.375 31.75H2.62504C2.30108 31.7542 1.98026 31.6862 1.68592 31.5508C1.39157 31.4154 1.13111 31.2161 0.923473 30.9674C0.466442 30.4211 0.282223 29.6751 0.41863 28.9206C1.01207 25.6286 2.8641 22.8632 5.77504 20.9219C8.36113 19.1985 11.637 18.25 15 18.25C18.3631 18.25 21.6389 19.1992 24.225 20.9219C27.136 22.8625 28.988 25.6279 29.5814 28.9199C29.7178 29.6744 29.5336 30.4204 29.0766 30.9667C28.869 31.2155 28.6086 31.415 28.3142 31.5505C28.0199 31.686 27.699 31.7541 27.375 31.75Z" fill="url(#paint0_linear_2_3789)"/>
<defs>
<linearGradient id="paint0_linear_2_3789" x1="0.140865" y1="-1.78706e-06" x2="36.1532" y2="21.4009" gradientUnits="userSpaceOnUse">
<stop stop-color="#8BDFDA"/>
<stop offset="1" stop-color="#369C96"/>
</linearGradient>
</defs>
</svg>
