<svg width="16" height="16" viewBox="0 0 16 16" fill="none" xmlns="http://www.w3.org/2000/svg">
<path d="M12.7462 15.8752C12.0599 15.8752 11.0959 15.627 9.65243 14.8205C7.89708 13.8361 6.53935 12.9273 4.79349 11.186C3.1102 9.50379 2.29106 8.41465 1.14462 6.32848C-0.150537 3.97301 0.0702439 2.73833 0.317041 2.21063C0.610947 1.57993 1.04478 1.2027 1.60552 0.828287C1.92402 0.619612 2.26107 0.440731 2.61239 0.293912C2.64755 0.278795 2.68024 0.264381 2.70942 0.251373C2.88345 0.172975 3.14712 0.054498 3.4811 0.181061C3.70399 0.264732 3.90298 0.435943 4.21446 0.74356C4.85325 1.37356 5.72618 2.77665 6.04821 3.46571C6.26442 3.93012 6.40751 4.23668 6.40786 4.58051C6.40786 4.98305 6.20536 5.29348 5.95962 5.62852C5.91356 5.69145 5.86786 5.75157 5.82356 5.80993C5.55603 6.16149 5.49731 6.26309 5.53599 6.4445C5.61438 6.80907 6.19903 7.89434 7.15985 8.85305C8.12067 9.81176 9.17466 10.3595 9.54063 10.4375C9.72978 10.478 9.83349 10.4168 10.1963 10.1398C10.2483 10.1 10.3018 10.0589 10.3577 10.0178C10.7324 9.73899 11.0284 9.54176 11.4215 9.54176H11.4236C11.7657 9.54176 12.0585 9.69012 12.5437 9.93481C13.1765 10.254 14.6218 11.1157 15.2556 11.7552C15.564 12.066 15.7359 12.2643 15.8199 12.4868C15.9465 12.8218 15.8273 13.0845 15.7496 13.2602C15.7366 13.2894 15.7222 13.3214 15.707 13.3569C15.5591 13.7076 15.3791 14.044 15.1695 14.3617C14.7958 14.9207 14.4172 15.3534 13.785 15.6477C13.4605 15.8012 13.1052 15.879 12.7462 15.8752Z" fill="#369C96"/>
</svg>
