<svg width="47" height="47" viewBox="0 0 47 47" fill="none" xmlns="http://www.w3.org/2000/svg">
<rect width="47" height="47" rx="23.5" fill="#304399"/>
<path d="M19.138 29.5V17.152H24.718C25.366 17.152 25.954 17.302 26.482 17.602C27.01 17.89 27.424 18.292 27.724 18.808C28.036 19.324 28.192 19.9 28.192 20.536V20.716C28.192 21.352 28.03 21.946 27.706 22.498C27.382 23.05 26.956 23.494 26.428 23.83C25.9 24.154 25.3 24.316 24.628 24.316H21.046V29.5H19.138ZM21.046 22.804H24.268C24.664 22.804 25.012 22.714 25.312 22.534C25.612 22.342 25.846 22.09 26.014 21.778C26.194 21.454 26.284 21.094 26.284 20.698C26.284 20.122 26.092 19.642 25.708 19.258C25.336 18.862 24.844 18.664 24.232 18.664H21.046V22.804Z" fill="white"/>
</svg>
