<svg width="10" height="16" viewBox="0 0 10 16" fill="none" xmlns="http://www.w3.org/2000/svg">
<path d="M0.954629 15.1594C0.743724 14.9484 0.625244 14.6623 0.625244 14.364C0.625244 14.0657 0.743724 13.7796 0.954629 13.5686L6.52338 7.99988L0.954629 2.43113C0.749701 2.21896 0.636307 1.93478 0.63887 1.63981C0.641434 1.34484 0.759749 1.06267 0.968333 0.854088C1.17692 0.645504 1.45908 0.52719 1.75405 0.524627C2.04902 0.522063 2.3332 0.635457 2.54538 0.840385L8.9095 7.20451C9.12041 7.41548 9.23889 7.70158 9.23889 7.99988C9.23889 8.29819 9.12041 8.58429 8.9095 8.79526L2.54538 15.1594C2.33441 15.3703 2.04831 15.4888 1.75 15.4888C1.45169 15.4888 1.1656 15.3703 0.954629 15.1594Z" fill="#369C96"/>
</svg>
