<svg width="7" height="13" viewBox="0 0 7 13" fill="none" xmlns="http://www.w3.org/2000/svg">
<path d="M0.326018 1.50217L5.19802 6.50017L0.326018 11.4982C0.238795 11.5875 0.189965 11.7073 0.189965 11.8322C0.189965 11.957 0.238795 12.0769 0.326018 12.1662C0.368382 12.2094 0.418948 12.2438 0.474754 12.2672C0.53056 12.2907 0.590485 12.3027 0.651018 12.3027C0.711551 12.3027 0.771475 12.2907 0.827281 12.2672C0.883087 12.2438 0.933653 12.2094 0.976017 12.1662L6.16002 6.84917C6.25103 6.75579 6.30197 6.63056 6.30197 6.50017C6.30197 6.36978 6.25103 6.24454 6.16002 6.15117L0.977018 0.834167C0.934622 0.790624 0.883932 0.756015 0.82794 0.732384C0.771949 0.708753 0.711792 0.696578 0.651018 0.696578C0.590244 0.696578 0.530086 0.708753 0.474094 0.732384C0.418103 0.756015 0.367414 0.790624 0.325017 0.834167C0.237795 0.923466 0.188965 1.04334 0.188965 1.16817C0.188965 1.293 0.237795 1.41287 0.325017 1.50217H0.326018Z" fill="#8FA2A2"/>
</svg>
