<svg width="34" height="26" viewBox="0 0 34 26" fill="none" xmlns="http://www.w3.org/2000/svg">
<path d="M22.625 13C21.1794 13 19.7816 12.3545 18.6875 11.1831C17.6237 10.0405 16.974 8.51688 16.8594 6.89406C16.7371 5.16297 17.2651 3.57109 18.3458 2.41094C19.4265 1.25078 20.9375 0.625 22.625 0.625C24.3006 0.625 25.8158 1.26203 26.893 2.41937C27.9807 3.58797 28.5102 5.17703 28.3879 6.89336C28.2704 8.51828 27.6214 10.0412 26.5597 11.1824C25.4685 12.3545 24.0714 13 22.625 13ZM31.8943 25.375H13.3564C13.0584 25.3766 12.764 25.3098 12.4958 25.1797C12.2276 25.0497 11.9929 24.8598 11.8096 24.6248C11.6152 24.37 11.4809 24.0745 11.4169 23.7605C11.3528 23.4464 11.3606 23.122 11.4397 22.8114C12.0318 20.4341 13.4985 18.4626 15.681 17.1105C17.6181 15.9109 20.0839 15.25 22.625 15.25C25.2161 15.25 27.6172 15.8828 29.5656 17.0816C31.753 18.4267 33.2218 20.4095 33.8111 22.8156C33.8892 23.1264 33.8961 23.4509 33.8314 23.7647C33.7666 24.0786 33.6318 24.3738 33.437 24.6283C33.2539 24.8622 33.0197 25.0512 32.7523 25.1806C32.4849 25.31 32.1914 25.3765 31.8943 25.375ZM9.33598 13.2812C6.86168 13.2812 4.68621 10.9806 4.48442 8.15336C4.38457 6.70492 4.83598 5.36547 5.75004 4.3832C6.65426 3.41078 7.92973 2.875 9.33598 2.875C10.7422 2.875 12.0079 3.41359 12.917 4.39164C13.8381 5.38164 14.2881 6.71828 14.1826 8.15477C13.9808 10.9813 11.8061 13.2812 9.33598 13.2812ZM13.9527 15.4926C12.7159 14.8879 11.1107 14.5855 9.33668 14.5855C7.26528 14.5855 5.25364 15.1255 3.6716 16.1057C1.87793 17.2188 0.67137 18.8395 0.184105 20.7962C0.112797 21.0777 0.106053 21.3716 0.164376 21.6561C0.222699 21.9405 0.34458 22.2081 0.520901 22.4387C0.688208 22.6535 0.902547 22.8271 1.14743 22.946C1.39232 23.065 1.66123 23.1262 1.93348 23.125H9.73817C9.8699 23.125 9.99744 23.0787 10.0986 22.9943C10.1997 22.9099 10.268 22.7927 10.2915 22.663C10.2993 22.6187 10.3091 22.5745 10.3204 22.5309C10.9166 20.136 12.3137 18.1124 14.3781 16.6373C14.454 16.5825 14.5151 16.5097 14.5558 16.4254C14.5964 16.3411 14.6154 16.248 14.611 16.1545C14.6066 16.061 14.579 15.9701 14.5306 15.89C14.4822 15.8099 14.4145 15.7431 14.3338 15.6958C14.2234 15.6311 14.0968 15.5629 13.9527 15.4926Z" fill="url(#paint0_linear_2_3854)"/>
<defs>
<linearGradient id="paint0_linear_2_3854" x1="-0.144605" y1="0.428571" x2="31.7733" y2="28.2828" gradientUnits="userSpaceOnUse">
<stop stop-color="#8BDFDA"/>
<stop offset="1" stop-color="#369C96"/>
</linearGradient>
</defs>
</svg>
