<svg width="16" height="17" viewBox="0 0 16 17" fill="none" xmlns="http://www.w3.org/2000/svg">
<path d="M13.5 3.8999H10.5V3.1499C10.5 2.81838 10.3683 2.50044 10.1339 2.26602C9.89946 2.0316 9.58152 1.8999 9.25 1.8999H6.75C6.41848 1.8999 6.10054 2.0316 5.86612 2.26602C5.6317 2.50044 5.5 2.81838 5.5 3.1499V3.8999H2.5C2.36739 3.8999 2.24021 3.95258 2.14645 4.04635C2.05268 4.14012 2 4.26729 2 4.3999C2 4.53251 2.05268 4.65969 2.14645 4.75346C2.24021 4.84722 2.36739 4.8999 2.5 4.8999H3.03125L3.625 14.4287C3.66937 15.2677 4.3125 15.8999 5.125 15.8999H10.875C11.6916 15.8999 12.3219 15.2818 12.375 14.4312L12.9688 4.8999H13.5C13.6326 4.8999 13.7598 4.84722 13.8536 4.75346C13.9473 4.65969 14 4.53251 14 4.3999C14 4.26729 13.9473 4.14012 13.8536 4.04635C13.7598 3.95258 13.6326 3.8999 13.5 3.8999ZM6.01781 13.8999H6C5.87042 13.9 5.74587 13.8498 5.6526 13.7598C5.55933 13.6699 5.50462 13.5472 5.5 13.4177L5.25 6.41772C5.24528 6.28511 5.29342 6.15605 5.38385 6.05894C5.47428 5.96184 5.59958 5.90463 5.73219 5.8999C5.8648 5.89518 5.99385 5.94333 6.09096 6.03375C6.18807 6.12418 6.24528 6.24948 6.25 6.38209L6.5 13.3821C6.50238 13.4478 6.49179 13.5133 6.46884 13.5748C6.44589 13.6364 6.41103 13.6929 6.36624 13.7409C6.32146 13.789 6.26764 13.8278 6.20785 13.8551C6.14806 13.8824 6.08349 13.8976 6.01781 13.8999ZM8.5 13.3999C8.5 13.5325 8.44732 13.6597 8.35355 13.7535C8.25979 13.8472 8.13261 13.8999 8 13.8999C7.86739 13.8999 7.74021 13.8472 7.64645 13.7535C7.55268 13.6597 7.5 13.5325 7.5 13.3999V6.3999C7.5 6.26729 7.55268 6.14012 7.64645 6.04635C7.74021 5.95258 7.86739 5.8999 8 5.8999C8.13261 5.8999 8.25979 5.95258 8.35355 6.04635C8.44732 6.14012 8.5 6.26729 8.5 6.3999V13.3999ZM9.5 3.8999H6.5V3.1499C6.49962 3.11697 6.50583 3.08429 6.51826 3.05379C6.53069 3.02329 6.54909 2.99558 6.57238 2.97229C6.59567 2.949 6.62338 2.93059 6.65388 2.91816C6.68439 2.90573 6.71706 2.89953 6.75 2.8999H9.25C9.28294 2.89953 9.31561 2.90573 9.34612 2.91816C9.37662 2.93059 9.40433 2.949 9.42762 2.97229C9.45091 2.99558 9.46931 3.02329 9.48174 3.05379C9.49417 3.08429 9.50038 3.11697 9.5 3.1499V3.8999ZM10.5 13.4177C10.4954 13.5472 10.4407 13.6699 10.3474 13.7598C10.2541 13.8498 10.1296 13.9 10 13.8999H9.98188C9.91623 13.8976 9.85168 13.8823 9.79193 13.855C9.73218 13.8277 9.67839 13.7889 9.63364 13.7408C9.58889 13.6928 9.55406 13.6363 9.53113 13.5748C9.5082 13.5132 9.49762 13.4477 9.5 13.3821L9.75 6.38209C9.75234 6.31643 9.76759 6.25187 9.79488 6.1921C9.82217 6.13234 9.86096 6.07853 9.90904 6.03375C9.95713 5.98898 10.0136 5.95411 10.0751 5.93115C10.1367 5.90818 10.2022 5.89756 10.2678 5.8999C10.3335 5.90224 10.398 5.91749 10.4578 5.94478C10.5176 5.97207 10.5714 6.01086 10.6161 6.05894C10.6609 6.10703 10.6958 6.16346 10.7188 6.22502C10.7417 6.28657 10.7523 6.35205 10.75 6.41772L10.5 13.4177Z" fill="#304399"/>
</svg>
